<svg xmlns="http://www.w3.org/2000/svg" xmlns:xlink="http://www.w3.org/1999/xlink" preserveAspectRatio="xMidYMid" width="10" height="6" viewBox="0 0 10 6">
  <defs>
    <style>

      .cls-2 {
        fill: #69afe9;
      }
    </style>
  </defs>
  <path d="M9.821,1.498 C10.019,1.310 10.019,1.005 9.821,0.818 C9.821,0.818 9.106,0.138 9.106,0.138 C8.909,-0.050 8.590,-0.050 8.393,0.138 C8.393,0.138 5.000,3.416 5.000,3.416 C5.000,3.416 1.577,0.111 1.577,0.111 C1.378,-0.078 1.059,-0.078 0.862,0.111 C0.862,0.111 0.148,0.791 0.148,0.791 C-0.049,0.977 -0.049,1.282 0.148,1.471 C0.148,1.471 4.641,5.798 4.641,5.798 C4.840,5.985 5.159,5.985 5.356,5.798 C5.356,5.798 9.821,1.498 9.821,1.498 Z" id="path-1" class="cls-2" fill-rule="evenodd"/>
</svg>
