<svg xmlns="http://www.w3.org/2000/svg" xmlns:xlink="http://www.w3.org/1999/xlink" preserveAspectRatio="xMidYMid" width="20" height="20" viewBox="0 0 20 20">
  <defs>
    <style>

      .cls-2 {
        fill: #787d94;
      }
    </style>
  </defs>
  <path d="M18.000,12.000 C16.895,12.000 16.000,11.105 16.000,10.000 C16.000,8.895 16.895,8.000 18.000,8.000 C19.105,8.000 20.000,8.895 20.000,10.000 C20.000,11.105 19.105,12.000 18.000,12.000 ZM17.000,5.000 C17.000,3.895 16.105,3.000 15.000,3.000 C15.000,3.000 14.000,3.000 14.000,3.000 C14.000,3.000 14.000,1.000 14.000,1.000 C14.000,1.000 16.000,1.000 16.000,1.000 C17.657,1.000 19.000,2.343 19.000,4.000 C19.000,4.000 19.000,6.000 19.000,6.000 C19.000,6.000 17.000,6.000 17.000,6.000 C17.000,6.000 17.000,5.000 17.000,5.000 ZM12.000,6.000 C12.000,6.000 14.000,6.000 14.000,6.000 C14.000,6.000 14.000,8.000 14.000,8.000 C14.000,8.000 12.000,8.000 12.000,8.000 C12.000,8.000 12.000,6.000 12.000,6.000 ZM10.000,4.000 C8.895,4.000 8.000,3.105 8.000,2.000 C8.000,0.895 8.895,0.000 10.000,0.000 C11.105,0.000 12.000,0.895 12.000,2.000 C12.000,3.105 11.105,4.000 10.000,4.000 ZM6.000,12.000 C6.000,12.000 8.000,12.000 8.000,12.000 C8.000,12.000 8.000,14.000 8.000,14.000 C8.000,14.000 6.000,14.000 6.000,14.000 C6.000,14.000 6.000,12.000 6.000,12.000 ZM6.000,6.000 C6.000,6.000 8.000,6.000 8.000,6.000 C8.000,6.000 8.000,8.000 8.000,8.000 C8.000,8.000 6.000,8.000 6.000,8.000 C6.000,8.000 6.000,6.000 6.000,6.000 ZM3.000,5.000 C3.000,5.000 3.000,6.000 3.000,6.000 C3.000,6.000 1.000,6.000 1.000,6.000 C1.000,6.000 1.000,5.000 1.000,5.000 C1.000,5.000 1.000,4.000 1.000,4.000 C1.000,2.343 2.343,1.000 4.000,1.000 C4.000,1.000 6.000,1.000 6.000,1.000 C6.000,1.000 6.000,3.000 6.000,3.000 C6.000,3.000 5.000,3.000 5.000,3.000 C3.895,3.000 3.000,3.895 3.000,5.000 ZM4.000,10.000 C4.000,11.105 3.105,12.000 2.000,12.000 C0.895,12.000 0.000,11.105 0.000,10.000 C0.000,8.895 0.895,8.000 2.000,8.000 C3.105,8.000 4.000,8.895 4.000,10.000 ZM3.000,15.000 C3.000,16.105 3.895,17.000 5.000,17.000 C5.000,17.000 6.000,17.000 6.000,17.000 C6.000,17.000 6.000,19.000 6.000,19.000 C6.000,19.000 4.000,19.000 4.000,19.000 C2.343,19.000 1.000,17.657 1.000,16.000 C1.000,16.000 1.000,14.000 1.000,14.000 C1.000,14.000 3.000,14.000 3.000,14.000 C3.000,14.000 3.000,15.000 3.000,15.000 ZM9.000,9.000 C9.000,9.000 11.000,9.000 11.000,9.000 C11.000,9.000 11.000,11.000 11.000,11.000 C11.000,11.000 9.000,11.000 9.000,11.000 C9.000,11.000 9.000,9.000 9.000,9.000 ZM12.000,12.000 C12.000,12.000 14.000,12.000 14.000,12.000 C14.000,12.000 14.000,14.000 14.000,14.000 C14.000,14.000 12.000,14.000 12.000,14.000 C12.000,14.000 12.000,12.000 12.000,12.000 ZM10.000,16.000 C11.105,16.000 12.000,16.895 12.000,18.000 C12.000,19.105 11.105,20.000 10.000,20.000 C8.895,20.000 8.000,19.105 8.000,18.000 C8.000,16.895 8.895,16.000 10.000,16.000 ZM17.000,15.000 C17.000,15.000 17.000,14.000 17.000,14.000 C17.000,14.000 19.000,14.000 19.000,14.000 C19.000,14.000 19.000,15.000 19.000,15.000 C19.000,15.000 19.000,16.000 19.000,16.000 C19.000,17.657 17.657,19.000 16.000,19.000 C16.000,19.000 14.000,19.000 14.000,19.000 C14.000,19.000 14.000,17.000 14.000,17.000 C14.000,17.000 15.000,17.000 15.000,17.000 C16.105,17.000 17.000,16.105 17.000,15.000 Z" id="path-1" class="cls-2" fill-rule="evenodd"/>
</svg>
