<svg xmlns="http://www.w3.org/2000/svg" xmlns:xlink="http://www.w3.org/1999/xlink" preserveAspectRatio="xMidYMid" width="18" height="19" viewBox="0 0 18 19">
  <defs>
    <style>

      .cls-2 {
        fill: #69afe9;
      }
    </style>
  </defs>
  <path d="M5.000,9.000 C5.000,9.000 7.000,9.000 7.000,9.000 C7.000,9.000 7.000,11.000 7.000,11.000 C7.000,11.000 5.000,11.000 5.000,11.000 C5.000,11.000 5.000,9.000 5.000,9.000 ZM7.000,14.000 C7.000,14.000 5.000,14.000 5.000,14.000 C5.000,14.000 5.000,12.000 5.000,12.000 C5.000,12.000 7.000,12.000 7.000,12.000 C7.000,12.000 7.000,14.000 7.000,14.000 ZM13.000,9.000 C13.000,9.000 13.000,11.000 13.000,11.000 C13.000,11.000 11.000,11.000 11.000,11.000 C11.000,11.000 11.000,9.000 11.000,9.000 C11.000,9.000 13.000,9.000 13.000,9.000 ZM13.000,14.000 C13.000,14.000 11.000,14.000 11.000,14.000 C11.000,14.000 11.000,12.000 11.000,12.000 C11.000,12.000 13.000,12.000 13.000,12.000 C13.000,12.000 13.000,14.000 13.000,14.000 ZM15.000,19.000 C15.000,19.000 11.000,19.000 11.000,19.000 C11.000,19.000 4.000,19.000 4.000,19.000 C4.000,19.000 3.000,19.000 3.000,19.000 C1.343,19.000 0.000,17.657 0.000,16.000 C0.000,16.000 0.000,4.000 0.000,4.000 C0.000,2.343 1.343,1.000 3.000,1.000 C3.000,1.000 4.277,1.000 4.277,1.000 C4.624,0.405 5.262,0.000 6.000,0.000 C7.105,0.000 8.000,0.895 8.000,2.000 C8.000,3.105 7.105,4.000 6.000,4.000 C5.262,4.000 4.624,3.595 4.277,3.000 C4.277,3.000 4.000,3.000 4.000,3.000 C2.895,3.000 2.000,3.895 2.000,5.000 C2.000,5.000 2.000,15.000 2.000,15.000 C2.000,16.105 2.895,17.000 4.000,17.000 C4.000,17.000 11.000,17.000 11.000,17.000 C11.000,17.000 14.000,17.000 14.000,17.000 C15.105,17.000 16.000,16.105 16.000,15.000 C16.000,15.000 16.000,5.000 16.000,5.000 C16.000,3.895 15.105,3.000 14.000,3.000 C14.000,3.000 13.723,3.000 13.723,3.000 C13.376,3.595 12.738,4.000 12.000,4.000 C10.895,4.000 10.000,3.105 10.000,2.000 C10.000,0.895 10.895,0.000 12.000,0.000 C12.738,0.000 13.376,0.405 13.723,1.000 C13.723,1.000 15.000,1.000 15.000,1.000 C15.000,1.000 15.000,1.000 15.000,1.000 C16.657,1.000 18.000,2.343 18.000,4.000 C18.000,4.000 18.000,16.000 18.000,16.000 C18.000,17.657 16.657,19.000 15.000,19.000 ZM8.000,14.000 C8.000,14.000 8.000,12.000 8.000,12.000 C8.000,12.000 10.000,12.000 10.000,12.000 C10.000,12.000 10.000,14.000 10.000,14.000 C10.000,14.000 8.000,14.000 8.000,14.000 ZM8.000,9.000 C8.000,9.000 10.000,9.000 10.000,9.000 C10.000,9.000 10.000,11.000 10.000,11.000 C10.000,11.000 8.000,11.000 8.000,11.000 C8.000,11.000 8.000,9.000 8.000,9.000 ZM8.000,6.000 C8.000,6.000 10.000,6.000 10.000,6.000 C10.000,6.000 10.000,8.000 10.000,8.000 C10.000,8.000 8.000,8.000 8.000,8.000 C8.000,8.000 8.000,6.000 8.000,6.000 Z" id="path-1" class="cls-2" fill-rule="evenodd"/>
</svg>
