<svg xmlns="http://www.w3.org/2000/svg" xmlns:xlink="http://www.w3.org/1999/xlink" preserveAspectRatio="xMidYMid" width="18" height="22" viewBox="0 0 18 22">
  <defs>
    <style>

      .cls-2 {
        fill: #787d94;
      }
    </style>
  </defs>
  <path d="M15.000,20.000 C15.000,20.000 14.000,20.000 14.000,20.000 C14.000,20.000 14.000,20.000 14.000,20.000 C14.000,20.000 12.000,20.000 12.000,20.000 C12.000,20.000 12.000,18.000 12.000,18.000 C12.000,18.000 14.000,18.000 14.000,18.000 C15.105,18.000 16.000,17.105 16.000,16.000 C16.000,16.000 16.000,6.000 16.000,6.000 C16.000,4.895 15.105,4.000 14.000,4.000 C14.000,4.000 13.000,4.000 13.000,4.000 C13.000,4.000 13.000,6.000 13.000,6.000 C13.000,6.000 8.000,3.000 8.000,3.000 C8.000,3.000 13.000,0.000 13.000,0.000 C13.000,0.000 13.000,2.000 13.000,2.000 C13.000,2.000 15.000,2.000 15.000,2.000 C16.657,2.000 18.000,3.343 18.000,5.000 C18.000,5.000 18.000,17.000 18.000,17.000 C18.000,18.657 16.657,20.000 15.000,20.000 ZM10.000,9.000 C10.000,9.000 8.000,9.000 8.000,9.000 C8.000,9.000 8.000,7.000 8.000,7.000 C8.000,7.000 10.000,7.000 10.000,7.000 C10.000,7.000 10.000,9.000 10.000,9.000 ZM10.000,12.000 C10.000,12.000 8.000,12.000 8.000,12.000 C8.000,12.000 8.000,10.000 8.000,10.000 C8.000,10.000 10.000,10.000 10.000,10.000 C10.000,10.000 10.000,12.000 10.000,12.000 ZM5.000,10.000 C5.000,10.000 7.000,10.000 7.000,10.000 C7.000,10.000 7.000,12.000 7.000,12.000 C7.000,12.000 5.000,12.000 5.000,12.000 C5.000,12.000 5.000,10.000 5.000,10.000 ZM5.000,7.000 C5.000,7.000 7.000,7.000 7.000,7.000 C7.000,7.000 7.000,9.000 7.000,9.000 C7.000,9.000 5.000,9.000 5.000,9.000 C5.000,9.000 5.000,7.000 5.000,7.000 ZM10.000,13.000 C10.000,13.000 10.000,15.000 10.000,15.000 C10.000,15.000 8.000,15.000 8.000,15.000 C8.000,15.000 8.000,13.000 8.000,13.000 C8.000,13.000 10.000,13.000 10.000,13.000 ZM2.000,6.000 C2.000,6.000 2.000,16.000 2.000,16.000 C2.000,17.105 2.895,18.000 4.000,18.000 C4.000,18.000 5.000,18.000 5.000,18.000 C5.000,18.000 5.000,16.000 5.000,16.000 C5.000,16.000 10.000,19.000 10.000,19.000 C10.000,19.000 5.000,22.000 5.000,22.000 C5.000,22.000 5.000,20.000 5.000,20.000 C5.000,20.000 3.000,20.000 3.000,20.000 C1.343,20.000 0.000,18.657 0.000,17.000 C0.000,17.000 0.000,5.000 0.000,5.000 C0.000,3.343 1.343,2.000 3.000,2.000 C3.000,2.000 4.000,2.000 4.000,2.000 C4.000,2.000 6.000,2.000 6.000,2.000 C6.000,2.000 6.000,4.000 6.000,4.000 C6.000,4.000 4.000,4.000 4.000,4.000 C2.895,4.000 2.000,4.895 2.000,6.000 ZM13.000,12.000 C13.000,12.000 11.000,12.000 11.000,12.000 C11.000,12.000 11.000,10.000 11.000,10.000 C11.000,10.000 13.000,10.000 13.000,10.000 C13.000,10.000 13.000,12.000 13.000,12.000 ZM13.000,15.000 C13.000,15.000 11.000,15.000 11.000,15.000 C11.000,15.000 11.000,13.000 11.000,13.000 C11.000,13.000 13.000,13.000 13.000,13.000 C13.000,13.000 13.000,15.000 13.000,15.000 Z" id="path-1" class="cls-2" fill-rule="evenodd"/>
</svg>
